<svg xmlns="http://www.w3.org/2000/svg" width="1200" height="675" viewBox="0 0 1200 675" role="img" aria-labelledby="title desc">
<title id="title">Caliber alternative AI coaching decision guide</title>
<desc id="desc">Object-only illustration with two smartphone coaching models, a dumbbell, nutrition bowl, and decision arrow. No people are shown.</desc>
<defs>
  <linearGradient id="bg" x1="0" y1="0" x2="1" y2="1"><stop offset="0" stop-color="#060B1D"/><stop offset=".56" stop-color="#0B1825"/><stop offset="1" stop-color="#10261F"/></linearGradient>
  <linearGradient id="a" x1="0" y1="0" x2="1" y2="1"><stop stop-color="#86D7FF"/><stop offset="1" stop-color="#00D4FF"/></linearGradient>
  <linearGradient id="b" x1="0" y1="0" x2="1" y2="1"><stop stop-color="#C9A84C"/><stop offset="1" stop-color="#FFD36E"/></linearGradient>
  <filter id="shadow" x="-30%" y="-30%" width="160%" height="160%"><feDropShadow dx="0" dy="14" stdDeviation="18" flood-color="#000" flood-opacity=".28"/></filter>
</defs>
<rect width="1200" height="675" rx="30" fill="url(#bg)"/>
<g opacity=".07" stroke="#BCECDD"><path d="M0 135H1200M0 270H1200M0 405H1200M0 540H1200"/><path d="M200 0V675M400 0V675M600 0V675M800 0V675M1000 0V675"/></g>
<text x="70" y="82" font-family="Inter,Arial,sans-serif" font-size="20" font-weight="900" fill="#86D7FF" letter-spacing="3">CALIBER ALTERNATIVE · 2026</text>
<text x="70" y="136" font-family="Inter,Arial,sans-serif" font-size="44" font-weight="900" fill="#F8FAFC">Choose the coaching model first</text>
<text x="70" y="173" font-family="Inter,Arial,sans-serif" font-size="21" fill="#AFC0D1">Human-led coaching and AI-first coaching solve different needs.</text>
<g transform="translate(82 220)" filter="url(#shadow)">
  <rect width="298" height="340" rx="28" fill="#0C1725" stroke="#C9A84C" stroke-width="3"/>
  <text x="149" y="48" text-anchor="middle" font-family="Inter,Arial,sans-serif" font-size="20" font-weight="900" fill="#FFD36E">HUMAN-LED</text>
  <rect x="72" y="76" width="154" height="192" rx="24" fill="#08121D" stroke="#C9A84C" stroke-width="3"/>
  <rect x="91" y="102" width="116" height="38" rx="12" fill="#1B2A35"/>
  <circle cx="108" cy="121" r="7" fill="#FFD36E"/><rect x="124" y="115" width="65" height="8" rx="4" fill="#DCE6ED" opacity=".72"/>
  <rect x="91" y="154" width="116" height="38" rx="12" fill="#1B2A35"/>
  <circle cx="108" cy="173" r="7" fill="#FFD36E"/><rect x="124" y="167" width="65" height="8" rx="4" fill="#DCE6ED" opacity=".72"/>
  <rect x="91" y="206" width="116" height="38" rx="12" fill="#1B2A35"/>
  <path d="M102 225l9 8 15-18" fill="none" stroke="#FFD36E" stroke-width="5" stroke-linecap="round" stroke-linejoin="round"/>
  <text x="149" y="308" text-anchor="middle" font-family="Inter,Arial,sans-serif" font-size="17" fill="#C7D3DD">coach · plan · review</text>
</g>
<g transform="translate(820 220)" filter="url(#shadow)">
  <rect width="298" height="340" rx="28" fill="#0C1725" stroke="#86D7FF" stroke-width="3"/>
  <text x="149" y="48" text-anchor="middle" font-family="Inter,Arial,sans-serif" font-size="20" font-weight="900" fill="#86D7FF">AI-FIRST</text>
  <rect x="72" y="76" width="154" height="192" rx="24" fill="#08121D" stroke="#86D7FF" stroke-width="3"/>
  <path d="M95 126h18l10-19 14 38 14-28 12 9h40" fill="none" stroke="#86D7FF" stroke-width="5" stroke-linecap="round" stroke-linejoin="round"/>
  <rect x="94" y="166" width="110" height="12" rx="6" fill="#86D7FF" opacity=".85"/><rect x="94" y="190" width="78" height="10" rx="5" fill="#DCE6ED" opacity=".55"/>
  <circle cx="149" cy="232" r="22" fill="#86D7FF" opacity=".16"/><path d="M139 233l8 8 15-20" fill="none" stroke="#8DFF6A" stroke-width="5" stroke-linecap="round" stroke-linejoin="round"/>
  <text x="149" y="308" text-anchor="middle" font-family="Inter,Arial,sans-serif" font-size="17" fill="#C7D3DD">adapt · call · iterate</text>
</g>
<g transform="translate(445 288)">
  <path d="M0 42h285" stroke="#5F7386" stroke-width="4" stroke-linecap="round"/><path d="M267 24l22 18-22 18" fill="none" stroke="#86D7FF" stroke-width="5" stroke-linecap="round" stroke-linejoin="round"/>
  <rect x="58" y="72" width="170" height="80" rx="18" fill="#101D29" stroke="#40596C" stroke-width="2"/>
  <text x="143" y="104" text-anchor="middle" font-family="Inter,Arial,sans-serif" font-size="16" font-weight="900" fill="#F8FAFC">YOUR PRIORITY?</text>
  <text x="143" y="131" text-anchor="middle" font-family="Inter,Arial,sans-serif" font-size="14" fill="#AFC0D1">human judgment or</text><text x="143" y="149" text-anchor="middle" font-family="Inter,Arial,sans-serif" font-size="14" fill="#AFC0D1">software speed</text>
</g>
<g transform="translate(455 478)" stroke="#E4EEF5" stroke-width="10" stroke-linecap="round"><line x1="0" y1="34" x2="210" y2="34"/><line x1="22" y1="12" x2="22" y2="56"/><line x1="46" y1="5" x2="46" y2="63"/><line x1="164" y1="5" x2="164" y2="63"/><line x1="188" y1="12" x2="188" y2="56"/></g>
<g transform="translate(632 468)"><path d="M70 64h155c-7 55-39 83-77 83S77 119 70 64z" fill="#17372D" stroke="#8DFF6A" stroke-width="4"/><circle cx="120" cy="52" r="17" fill="#FFD36E"/><circle cx="159" cy="44" r="21" fill="#8DFF6A" opacity=".8"/><circle cx="195" cy="55" r="15" fill="#86D7FF" opacity=".8"/></g>
<text x="70" y="628" font-family="Inter,Arial,sans-serif" font-size="18" font-weight="850" fill="#86D7FF" letter-spacing="2">IZEM · DECISION GUIDE</text>
</svg>