<svg xmlns="http://www.w3.org/2000/svg" width="1200" height="675" viewBox="0 0 1200 675" role="img" aria-labelledby="title desc">
<title id="title">How many exercises per workout? — decision framework</title>
<desc id="desc">Three planning steps: count exercises and working sets, check weekly coverage, and estimate session time.</desc>
<defs>
  <linearGradient id="bg" x1="0" y1="0" x2="1" y2="1"><stop offset="0" stop-color="#060B12"/><stop offset="0.54" stop-color="#0C1824"/><stop offset="1" stop-color="#102A25"/></linearGradient>
  <radialGradient id="glow" cx="0.84" cy="0.14" r="0.68"><stop offset="0" stop-color="#8DFF6A" stop-opacity=".15"/><stop offset="1" stop-color="#8DFF6A" stop-opacity="0"/></radialGradient>
  <filter id="shadow" x="-30%" y="-30%" width="160%" height="160%"><feDropShadow dx="0" dy="14" stdDeviation="18" flood-color="#000" flood-opacity=".28"/></filter>
</defs>
<rect width="1200" height="675" rx="28" fill="url(#bg)"/>
<rect width="1200" height="675" rx="28" fill="url(#glow)"/>
<g opacity=".07" stroke="#BCECDD" stroke-width="1"><path d="M0 135H1200M0 270H1200M0 405H1200M0 540H1200"/><path d="M200 0V675M400 0V675M600 0V675M800 0V675M1000 0V675"/></g>
<text x="70" y="104" font-family="Inter,Arial,sans-serif" font-size="17" font-weight="900" fill="#8DFF6A" letter-spacing="3">WORKOUT PLANNING</text>
<text x="70" y="158" font-family="Inter,Arial,sans-serif" font-size="38" font-weight="850" fill="#F8FAFC"><tspan x="70" dy="0">Choose your exercises before adding more</tspan></text>
<g transform="translate(70 254)" filter="url(#shadow)"><rect width="315" height="238" rx="24" fill="#0D1A27" stroke="#30485A" stroke-width="3"/><rect x="26" y="26" width="48" height="48" rx="14" fill="#8DFF6A" opacity="0.2"/><text x="50" y="59" text-anchor="middle" font-family="Inter,Arial,sans-serif" font-size="20" font-weight="900" fill="#8DFF6A">1</text><text x="26" y="112" font-family="Inter,Arial,sans-serif" font-size="23" font-weight="800" fill="#F8FAFC"><tspan x="26" dy="0">Count exercises and</tspan><tspan x="26" dy="31">working sets</tspan><tspan x="26" dy="31">separately</tspan></text><rect x="26" y="198" width="206" height="10" rx="5" fill="#9DB0C0" opacity=".32"/></g><path d="M388 374H424" stroke="#42C7C3" stroke-width="6" stroke-linecap="round"/><path d="M414 362l13 12-13 12" fill="none" stroke="#42C7C3" stroke-width="6" stroke-linecap="round" stroke-linejoin="round"/><g transform="translate(435 254)" filter="url(#shadow)"><rect width="315" height="238" rx="24" fill="#0D1A27" stroke="#8DFF6A" stroke-width="3"/><rect x="26" y="26" width="48" height="48" rx="14" fill="#8DFF6A" opacity="0.95"/><text x="50" y="59" text-anchor="middle" font-family="Inter,Arial,sans-serif" font-size="20" font-weight="900" fill="#07120D">2</text><text x="26" y="112" font-family="Inter,Arial,sans-serif" font-size="23" font-weight="800" fill="#F8FAFC"><tspan x="26" dy="0">Choose the exercises</tspan><tspan x="26" dy="31">your week needs</tspan></text><rect x="26" y="198" width="206" height="10" rx="5" fill="#9DB0C0" opacity=".32"/></g><path d="M753 374H789" stroke="#42C7C3" stroke-width="6" stroke-linecap="round"/><path d="M779 362l13 12-13 12" fill="none" stroke="#42C7C3" stroke-width="6" stroke-linecap="round" stroke-linejoin="round"/><g transform="translate(800 254)" filter="url(#shadow)"><rect width="315" height="238" rx="24" fill="#0D1A27" stroke="#30485A" stroke-width="3"/><rect x="26" y="26" width="48" height="48" rx="14" fill="#8DFF6A" opacity="0.2"/><text x="50" y="59" text-anchor="middle" font-family="Inter,Arial,sans-serif" font-size="20" font-weight="900" fill="#8DFF6A">3</text><text x="26" y="112" font-family="Inter,Arial,sans-serif" font-size="23" font-weight="800" fill="#F8FAFC"><tspan x="26" dy="0">Check how many</tspan><tspan x="26" dy="31">exercises fit your</tspan><tspan x="26" dy="31">time</tspan></text><rect x="26" y="198" width="206" height="10" rx="5" fill="#9DB0C0" opacity=".32"/></g>
<text x="70" y="627" font-family="Inter,Arial,sans-serif" font-size="18" font-weight="850" fill="#8DFF6A" letter-spacing="2">IZEM · PRACTICAL GUIDE</text>
</svg>